<svg xmlns="http://www.w3.org/2000/svg" xmlns:xlink="http://www.w3.org/1999/xlink" version="1.1" x="0px" y="0px" width="64px" height="64px" viewBox="0 0 64 64" enable-background="new 0 0 64 64" xml:space="preserve"><g><path d="M0 0v64h3V51h5v11h7v2h1.312c-0.019-0.046-0.021-0.082-0.038-0.13C16.075 63.335 16 62.684 16 61.918V55h4v6 c0 0.536 0.026 0.963 0.249 1.286c0.222 0.321 0.574 0.481 1.14 0.481c0.307 0 0.542-0.053 0.748-0.16 c0.208-0.107 0.365-0.254 0.495-0.437c0.13-0.184 0.228-0.386 0.281-0.608S23 61.115 23 60.885V55h4v9h2.537 c-0.26-0.351-0.492-0.727-0.67-1.151c-0.298-0.713-0.447-1.504-0.447-2.378c0-0.81 0.149-1.564 0.447-2.261 c0.299-0.695 0.713-1.304 1.24-1.825c0.529-0.521 1.147-0.926 1.861-1.218c0.711-0.29 1.472-0.436 2.283-0.436 c1.072 0 1.972 0.168 2.699 0.505c0.727 0.338 1.32 0.767 1.779 1.286l-2.273 2.595c-0.169-0.199-0.406-0.414-0.713-0.644 c-0.306-0.229-0.765-0.344-1.377-0.344c-0.536 0-1.011 0.211-1.423 0.631c-0.414 0.421-0.62 0.991-0.62 1.71 c0 0.354 0.057 0.678 0.172 0.977c0.115 0.298 0.264 0.552 0.448 0.758s0.398 0.368 0.642 0.481 c0.245 0.115 0.506 0.173 0.781 0.173c0.29 0 0.551-0.034 0.78-0.104c0.23-0.069 0.429-0.156 0.597-0.264 c0.17-0.107 0.312-0.218 0.426-0.333c0.115-0.115 0.209-0.211 0.287-0.287L38.32 64h1.402c-0.073-0.3-0.121-0.627-0.121-1.002 c0-0.645 0.138-1.213 0.413-1.711s0.65-0.91 1.125-1.24c0.475-0.329 1.025-0.578 1.653-0.746c0.627-0.169 1.286-0.253 1.974-0.253 c0.353 0 0.479 0.008 0.686 0.023C45.659 59.086 46 59.109 46 59.14v-0.207c0-0.275 0.096-0.501-0.02-0.678 c-0.114-0.175-0.184-0.312-0.359-0.412s-0.329-0.168-0.536-0.206c-0.206-0.038-0.391-0.058-0.59-0.058 c-0.689 0-1.283 0.088-1.804 0.264c-0.521 0.176-0.937 0.379-1.259 0.608l-1.466-2.228c0.46-0.367 1.103-0.704 1.93-1.011 c0.826-0.305 1.883-0.458 3.169-0.458c0.749 0 1.431 0.096 2.044 0.286c0.613 0.191 1.141 0.482 1.585 0.873 c0.443 0.391 0.741 0.872 0.986 1.447C49.925 57.935 50 58.604 50 59.369V64h1.804l1.138-1.691 c0.184 0.152 0.405 0.294 0.666 0.425c0.26 0.13 0.532 0.24 0.815 0.333c0.282 0.092 0.565 0.164 0.85 0.219 c0.283 0.053 0.532 0.079 0.745 0.079c0.398 0 0.738-0.046 1.022-0.137c0.283-0.093 0.425-0.307 0.425-0.644 c0-0.245-0.165-0.439-0.494-0.585c-0.328-0.146-0.914-0.348-1.756-0.608c-0.475-0.139-0.912-0.303-1.31-0.494 s-0.742-0.417-1.032-0.678c-0.291-0.261-0.518-0.565-0.678-0.918c-0.161-0.352-0.24-0.758-0.24-1.217s0.11-0.893 0.333-1.298 c0.221-0.405 0.534-0.762 0.941-1.067c0.404-0.307 0.894-0.547 1.469-0.724c0.574-0.176 1.205-0.264 1.895-0.264 c0.887 0 1.687 0.107 2.399 0.321c0.712 0.215 1.381 0.528 2.008 0.941l-1.308 2.411c-0.414-0.244-0.846-0.459-1.298-0.644 c-0.451-0.183-0.923-0.275-1.412-0.275c-0.797 0-1.194 0.215-1.194 0.644c0 0.183 0.073 0.333 0.218 0.448 c0.146 0.114 0.342 0.214 0.587 0.298c0.244 0.084 0.527 0.169 0.85 0.253c0.321 0.084 0.666 0.188 1.033 0.31 c0.551 0.184 1.002 0.391 1.354 0.62c0.353 0.229 0.632 0.481 0.838 0.757c0.208 0.275 0.35 0.579 0.426 0.908 c0.077 0.328 0.115 0.678 0.115 1.044c0 0.473-0.104 0.871-0.259 1.232H64V0H0z"/><path d="M45.25 63.537c0.199-0.054 0.374-0.146 0.527-0.275c0.153-0.13 0.127-0.303 0.226-0.518C46.104 62.53 46 62.263 46 61.941 v-0.712c0-0.062-0.46-0.093-0.903-0.093c-0.644 0-1.042 0.127-1.349 0.38c-0.305 0.252-0.419 0.555-0.419 0.906 c0 0.797 0.446 1.195 1.304 1.195C44.831 63.618 45.051 63.591 45.25 63.537z"/></g></svg>